<svg width="20" height="21" viewBox="0 0 20 21" fill="none" xmlns="http://www.w3.org/2000/svg">
<path d="M6.50258 5.32324C6.99341 5.32324 7.43508 5.36574 7.84008 5.45241C8.24258 5.53824 8.58592 5.67991 8.87592 5.87574C9.16175 6.07158 9.38508 6.33158 9.54592 6.65824C9.70175 6.98074 9.77925 7.38408 9.77925 7.86074C9.77925 8.37741 9.66258 8.80908 9.42842 9.15324C9.19258 9.49824 8.84508 9.78074 8.38175 9.99908C9.01258 10.1816 9.48008 10.5007 9.79008 10.9541C10.1017 11.4116 10.2542 11.9591 10.2542 12.6007C10.2542 13.1216 10.1551 13.5691 9.95591 13.9449C9.76399 14.3151 9.48555 14.6336 9.14425 14.8732C8.79072 15.1194 8.39584 15.3001 7.97842 15.4066C7.54076 15.5215 7.09006 15.5792 6.63758 15.5782H1.66675V5.32324H6.50258ZM6.21008 9.46658C6.61008 9.46658 6.94175 9.37158 7.20341 9.17908C7.46342 8.98908 7.58925 8.67574 7.58925 8.24658C7.58925 8.00824 7.54675 7.81158 7.46342 7.65741C7.38223 7.50909 7.26207 7.38577 7.11591 7.30074C6.96294 7.21002 6.79411 7.14921 6.61841 7.12158C6.42691 7.08586 6.23238 7.06884 6.03758 7.07074H3.92508V9.46658H6.21008ZM6.33592 13.8324C6.55841 13.8324 6.77008 13.8132 6.96925 13.7682C7.17008 13.7249 7.34841 13.6549 7.50008 13.5507C7.65175 13.4507 7.77675 13.3149 7.86675 13.1416C7.95758 12.9699 8.00175 12.7457 8.00175 12.4766C8.00175 11.9482 7.85258 11.5724 7.55758 11.3449C7.26175 11.1199 6.86508 11.0082 6.37925 11.0082H3.92508V13.8332H6.33592V13.8324ZM13.4734 13.7982C13.7792 14.0966 14.2201 14.2466 14.7934 14.2466C15.2042 14.2466 15.5592 14.1424 15.8584 13.9357C16.1534 13.7282 16.3334 13.5066 16.4026 13.2774H18.1984C17.9101 14.1707 17.4726 14.8091 16.8742 15.1932C16.2834 15.5791 15.5642 15.7707 14.7242 15.7707C14.1392 15.7707 13.6126 15.6766 13.1409 15.4899C12.6882 15.3136 12.2791 15.0412 11.9417 14.6916C11.61 14.3338 11.3535 13.9129 11.1876 13.4541C11.0052 12.9467 10.9149 12.4107 10.9209 11.8716C10.9209 11.3166 11.0134 10.7974 11.1951 10.3182C11.3675 9.85506 11.6323 9.43177 11.9734 9.07408C12.3109 8.72408 12.7109 8.44824 13.1767 8.24574C13.6666 8.03972 14.1937 7.93702 14.7251 7.94408C15.3534 7.94408 15.9026 8.06574 16.3742 8.31074C16.8316 8.54461 17.2282 8.88187 17.5326 9.29574C17.8351 9.70658 18.0509 10.1774 18.1851 10.7049C18.3193 11.2316 18.3659 11.7816 18.3276 12.3574H12.9684C12.9692 12.9441 13.1667 13.4999 13.4734 13.7982ZM15.8167 9.89741C15.5742 9.62908 15.1642 9.48408 14.6626 9.48408C14.3367 9.48408 14.0676 9.53824 13.8509 9.64991C13.6528 9.74997 13.477 9.88916 13.3342 10.0591C13.2088 10.2133 13.1159 10.3913 13.0609 10.5824C13.0128 10.7417 12.9818 10.9057 12.9684 11.0716H16.2867C16.2384 10.5516 16.0601 10.1674 15.8167 9.89741ZM12.5517 6.01158H16.7092V7.02408H12.5517V6.01158Z" fill="#858585"/>
</svg>
