<svg width="20" height="21" viewBox="0 0 20 21" fill="none" xmlns="http://www.w3.org/2000/svg">
<path d="M9.99909 6.69482C8.97712 6.69482 7.99701 7.1008 7.27437 7.82344C6.55173 8.54608 6.14575 9.52619 6.14575 10.5482C6.14575 11.5701 6.55173 12.5502 7.27437 13.2729C7.99701 13.9955 8.97712 14.4015 9.99909 14.4015C11.0211 14.4015 12.0012 13.9955 12.7238 13.2729C13.4464 12.5502 13.8524 11.5701 13.8524 10.5482C13.8524 9.52619 13.4464 8.54608 12.7238 7.82344C12.0012 7.1008 11.0211 6.69482 9.99909 6.69482ZM9.99909 13.0507C9.33516 13.0507 8.69843 12.7869 8.22896 12.3174C7.7595 11.848 7.49575 11.2112 7.49575 10.5473C7.49575 9.8834 7.7595 9.24667 8.22896 8.7772C8.69843 8.30773 9.33516 8.04399 9.99909 8.04399C10.663 8.04399 11.2997 8.30773 11.7692 8.7772C12.2387 9.24667 12.5024 9.8834 12.5024 10.5473C12.5024 11.2112 12.2387 11.848 11.7692 12.3174C11.2997 12.7869 10.663 13.0507 9.99909 13.0507Z" fill="#858585"/>
<path d="M14.005 7.45145C14.5012 7.45145 14.9034 7.04925 14.9034 6.55312C14.9034 6.05698 14.5012 5.65479 14.005 5.65479C13.5089 5.65479 13.1067 6.05698 13.1067 6.55312C13.1067 7.04925 13.5089 7.45145 14.005 7.45145Z" fill="#858585"/>
<path d="M17.1109 5.64009C16.918 5.14191 16.6232 4.68949 16.2453 4.31181C15.8675 3.93412 15.415 3.63948 14.9167 3.44676C14.3337 3.22789 13.7177 3.10954 13.095 3.09676C12.2925 3.06176 12.0384 3.05176 10.0034 3.05176C7.96838 3.05176 7.70754 3.05176 6.91171 3.09676C6.28953 3.10889 5.67401 3.22726 5.09171 3.44676C4.59332 3.63926 4.14068 3.93382 3.76282 4.31153C3.38496 4.68925 3.09023 5.14178 2.89754 5.64009C2.67863 6.2231 2.56055 6.83912 2.54838 7.46176C2.51254 8.26342 2.50171 8.51759 2.50171 10.5534C2.50171 12.5884 2.50171 12.8476 2.54838 13.6451C2.56088 14.2684 2.67838 14.8834 2.89754 15.4676C3.09077 15.9657 3.38579 16.4181 3.76374 16.7957C4.14169 17.1734 4.59426 17.4681 5.09254 17.6609C5.67374 17.8886 6.28952 18.0154 6.91338 18.0359C7.71588 18.0709 7.97004 18.0818 10.005 18.0818C12.04 18.0818 12.3009 18.0818 13.0967 18.0359C13.7193 18.0233 14.3352 17.9052 14.9184 17.6868C15.4165 17.4936 15.8689 17.1987 16.2467 16.8209C16.6245 16.4431 16.9194 15.9907 17.1125 15.4926C17.3317 14.9093 17.4492 14.2943 17.4617 13.6709C17.4975 12.8693 17.5084 12.6151 17.5084 10.5793C17.5084 8.54342 17.5084 8.28509 17.4617 7.48759C17.452 6.85615 17.3333 6.23113 17.1109 5.64009ZM16.0959 13.5834C16.0905 14.0637 16.0028 14.5395 15.8367 14.9901C15.7116 15.3141 15.52 15.6084 15.2743 15.854C15.0286 16.0996 14.7342 16.291 14.41 16.4159C13.9644 16.5813 13.4937 16.669 13.0184 16.6751C12.2267 16.7118 12.0034 16.7209 9.97338 16.7209C7.94171 16.7209 7.73421 16.7209 6.92754 16.6751C6.45248 16.6693 5.98198 16.5816 5.53671 16.4159C5.21145 16.2917 4.91588 16.1007 4.66912 15.8551C4.42236 15.6094 4.22991 15.3148 4.10421 14.9901C3.94041 14.5443 3.8528 14.0741 3.84504 13.5993C3.80921 12.8076 3.80088 12.5843 3.80088 10.5543C3.80088 8.52342 3.80088 8.31592 3.84504 7.50842C3.85043 7.02844 3.93809 6.55294 4.10421 6.10259C4.35838 5.44509 4.87921 4.92759 5.53671 4.67592C5.9822 4.51104 6.45256 4.42339 6.92754 4.41676C7.72004 4.38092 7.94254 4.37092 9.97338 4.37092C12.0042 4.37092 12.2125 4.37092 13.0184 4.41676C13.4937 4.42248 13.9645 4.51015 14.41 4.67592C14.7342 4.80115 15.0285 4.99276 15.2742 5.23845C15.5199 5.48414 15.7115 5.77848 15.8367 6.10259C16.0005 6.54838 16.0881 7.01856 16.0959 7.49342C16.1317 8.28592 16.1409 8.50842 16.1409 10.5393C16.1409 12.5693 16.1409 12.7876 16.105 13.5843H16.0959V13.5834Z" fill="#858585"/>
</svg>
