<svg width="20" height="21" viewBox="0 0 20 21" fill="none" xmlns="http://www.w3.org/2000/svg">
<path d="M17.2167 6.36387C16.4896 5.10364 15.443 4.05738 14.1826 3.33053C12.9051 2.58637 11.5109 2.21387 10.0001 2.21387C8.48925 2.21387 7.09508 2.58637 5.81675 3.33053C4.53925 4.0747 3.52758 5.08637 2.78341 6.36387C2.03925 7.64137 1.66675 9.03637 1.66675 10.5472C1.66675 12.058 2.03841 13.453 2.78341 14.7305C3.51035 15.991 4.55696 17.0373 5.81758 17.7639C7.09508 18.508 8.48925 18.8805 10.0001 18.8805C11.5109 18.8805 12.9051 18.508 14.1834 17.7639C15.4438 17.037 16.4904 15.9908 17.2176 14.7305C17.9617 13.453 18.3334 12.058 18.3334 10.5472C18.3334 9.03637 17.9617 7.64137 17.2167 6.36387ZM10.0001 3.5972C11.6667 3.5972 13.1434 4.13053 14.4334 5.19637C13.6667 6.1747 12.5284 6.9797 11.0167 7.61303C10.1817 6.1022 9.27675 4.84053 8.29925 3.8297C8.85325 3.67652 9.42529 3.59832 10.0001 3.5972ZM4.59175 6.21387C5.20111 5.44006 5.97214 4.80868 6.85091 4.36387C7.86091 5.3647 8.78841 6.61387 9.63425 8.11387C7.96758 8.61387 6.20591 8.86387 4.35008 8.86387C3.87258 8.86387 3.51175 8.85303 3.26675 8.83053C3.52214 7.87585 3.97337 6.98475 4.59175 6.21387ZM3.05008 10.5472C3.05008 10.5022 3.05258 10.4472 3.05841 10.3805C3.06425 10.3139 3.06675 10.2589 3.06675 10.2139C3.27841 10.2255 3.60091 10.2305 4.03425 10.2305C6.25591 10.2305 8.32258 9.9247 10.2334 9.31387C10.3892 9.6247 10.5509 9.9747 10.7167 10.3639C9.61675 10.608 8.48841 11.2022 7.33258 12.1472C6.17675 13.0922 5.33342 14.0864 4.80008 15.1305C3.63341 13.808 3.05008 12.2805 3.05008 10.5472ZM10.0001 17.4972C8.42175 17.4972 7.00508 17.008 5.74925 16.0314C6.25008 15.0422 7.01925 14.0964 8.05841 13.1972C9.09675 12.2972 10.1276 11.7364 11.1501 11.5139C11.7951 13.2964 12.2313 15.1476 12.4501 17.0305C11.6691 17.3357 10.8385 17.4939 10.0001 17.4972ZM15.9001 14.1972C15.3546 15.076 14.6202 15.8221 13.7501 16.3814C13.5501 14.648 13.1667 12.9589 12.6009 11.3139C13.3776 11.2589 14.0717 11.2305 14.6842 11.2305C15.3501 11.2305 16.0892 11.2589 16.9001 11.3139C16.7913 12.3387 16.4492 13.3251 15.9001 14.1972ZM14.8667 10.0305C13.9001 10.0305 13.0059 10.0697 12.1834 10.1472C12.0092 9.69118 11.8202 9.24095 11.6167 8.7972C13.3384 8.0422 14.5601 7.12553 15.2826 6.0472C16.2826 7.22553 16.8276 8.5697 16.9159 10.0805C16.2392 10.0472 15.5559 10.0305 14.8667 10.0305Z" fill="#858585"/>
</svg>
