<svg width="20" height="21" viewBox="0 0 20 21" fill="none" xmlns="http://www.w3.org/2000/svg">
<path d="M4.15243 6.5451C5.15943 6.5451 5.97577 5.72877 5.97577 4.72177C5.97577 3.71477 5.15943 2.89844 4.15243 2.89844C3.14544 2.89844 2.3291 3.71477 2.3291 4.72177C2.3291 5.72877 3.14544 6.5451 4.15243 6.5451Z" fill="#858585"/>
<path d="M7.69743 7.92676V18.0426H10.8383V13.0401C10.8383 11.7201 11.0866 10.4418 12.7233 10.4418C14.3374 10.4418 14.3574 11.9509 14.3574 13.1234V18.0434H17.4999V12.4959C17.4999 9.77092 16.9133 7.67676 13.7283 7.67676C12.1991 7.67676 11.1741 8.51592 10.7549 9.31009H10.7124V7.92676H7.69743ZM2.5791 7.92676H5.72493V18.0426H2.5791V7.92676Z" fill="#858585"/>
</svg>
