<svg width="21" height="21" viewBox="0 0 21 21" fill="none" xmlns="http://www.w3.org/2000/svg">
<path d="M17.0833 3.88086H3.74992C3.30789 3.88086 2.88397 4.05645 2.57141 4.36901C2.25885 4.68158 2.08325 5.1055 2.08325 5.54753V15.5475C2.08325 15.9896 2.25885 16.4135 2.57141 16.726C2.88397 17.0386 3.30789 17.2142 3.74992 17.2142H17.0833C17.5253 17.2142 17.9492 17.0386 18.2618 16.726C18.5743 16.4135 18.7499 15.9896 18.7499 15.5475V5.54753C18.7499 5.1055 18.5743 4.68158 18.2618 4.36901C17.9492 4.05645 17.5253 3.88086 17.0833 3.88086ZM17.0833 7.79753L10.4166 12.2425L3.74992 7.79753V5.79503L10.4166 10.2392L17.0833 5.79503V7.79753Z" fill="#E2D784"/>
</svg>
