<svg width="171" height="49" viewBox="0 0 171 49" fill="none" xmlns="http://www.w3.org/2000/svg">
<path d="M3.53117 35.5215C2.90366 35.5228 2.28704 35.3576 1.74429 35.0427C1.20154 34.7277 0.752125 34.2743 0.441951 33.7289C0.136525 33.1872 -0.015799 32.5727 0.00129579 31.9511C0.0183906 31.3295 0.20426 30.7243 0.538995 30.2003L6.90073 20.2102C7.22634 19.6733 7.68862 19.2324 8.24036 18.9326C8.7921 18.6328 9.41353 18.4848 10.0412 18.5038C10.6683 18.5188 11.2802 18.7002 11.8143 19.0294C12.3483 19.3586 12.7853 19.8238 13.0805 20.3773C13.6736 21.4987 13.5994 22.8479 12.8891 23.9005L6.53143 33.8906C6.20902 34.393 5.76501 34.8059 5.24054 35.091C4.71607 35.3761 4.12811 35.5241 3.53117 35.5215Z" fill="#F62B54"/>
<path d="M14.4427 35.5215C13.1596 35.5215 11.9789 34.8355 11.3589 33.733C11.0541 33.1928 10.9022 32.5799 10.9193 31.9599C10.9364 31.3399 11.1219 30.7363 11.4559 30.2138L17.8055 20.2466C18.1264 19.7021 18.587 19.2534 19.1397 18.947C19.6923 18.6406 20.3169 18.4876 20.9487 18.5039C22.2426 18.5322 23.4152 19.256 24.0082 20.3881C24.5972 21.5203 24.511 22.8776 23.7791 23.9275L17.4308 33.8947C17.1094 34.395 16.6672 34.8062 16.145 35.0905C15.6227 35.3748 15.0373 35.5231 14.4427 35.5215Z" fill="#FFCC00"/>
<path d="M25.1112 35.6046C26.92 35.6046 28.3864 34.169 28.3864 32.3981C28.3864 30.6272 26.92 29.1917 25.1112 29.1917C23.3023 29.1917 21.8359 30.6272 21.8359 32.3981C21.8359 34.169 23.3023 35.6046 25.1112 35.6046Z" fill="#00CA72"/>
<path d="M167.396 29.3779C168.385 29.3779 168.977 30.0814 168.977 31.2338V35.183H170.321V31.1435C170.321 29.1838 169.398 28.0476 167.662 28.0476C166.982 28.0476 165.904 28.2336 165.261 29.483C165.112 29.1145 164.865 28.7933 164.548 28.5536C164.231 28.3139 163.855 28.1647 163.459 28.1217C163.21 28.0761 162.957 28.0612 162.704 28.0772C162.152 28.1217 161.168 28.4654 160.8 29.2444V28.1972H159.455V35.183H160.8V31.4131C160.8 29.9467 161.76 29.3779 162.721 29.3779C163.621 29.3779 164.213 30.0666 164.213 31.219V35.183H165.55V31.4131C165.55 30.2459 166.251 29.3644 167.396 29.3779ZM154.518 34.0157C155.132 34.0292 155.725 33.7839 156.155 33.3391C156.587 32.8944 156.816 32.2892 156.793 31.6678C156.793 30.2607 155.758 29.3779 154.518 29.3779C153.276 29.3779 152.243 30.2607 152.243 31.6678C152.218 32.2878 152.447 32.8917 152.876 33.3351C153.305 33.7799 153.895 34.0265 154.507 34.0157H154.518ZM154.518 35.3258C152.553 35.3258 150.912 33.8742 150.912 31.6597C150.912 29.4453 152.553 28.0395 154.518 28.0395C156.483 28.0395 158.137 29.4453 158.137 31.6597C158.137 33.8742 156.473 35.3326 154.508 35.3326L154.518 35.3258ZM143.991 31.6597L143.978 31.6678C143.978 29.4534 145.661 28.0476 147.64 28.0395C148.137 28.0299 148.63 28.1247 149.088 28.3179C149.546 28.5111 149.959 28.7982 150.299 29.1609L149.28 30.0289C149.064 29.8164 148.807 29.6488 148.526 29.5359C148.244 29.423 147.943 29.367 147.64 29.3711C146.4 29.3711 145.321 30.254 145.321 31.6597C145.321 32.61 145.886 33.4658 146.753 33.8297C147.62 34.1937 148.617 33.9915 149.28 33.3203L150.314 34.1883C149.973 34.5546 149.558 34.8452 149.098 35.0412C148.637 35.2371 148.14 35.3341 147.64 35.3258C145.676 35.3258 143.991 33.8742 143.991 31.6597ZM139.688 33.8419C139.686 33.7197 139.709 33.5985 139.754 33.4851C139.8 33.3718 139.867 33.2684 139.952 33.1811C140.038 33.0937 140.139 33.024 140.252 32.976C140.364 32.928 140.485 32.9025 140.607 32.9011C140.729 32.9025 140.85 32.928 140.962 32.976C141.074 33.024 141.176 33.0937 141.261 33.1811C141.347 33.2684 141.414 33.3718 141.459 33.4851C141.505 33.5985 141.527 33.7197 141.526 33.8419C141.514 34.0784 141.412 34.3014 141.241 34.4655C141.071 34.6296 140.844 34.7223 140.607 34.7247C140.37 34.7223 140.143 34.6296 139.972 34.4655C139.801 34.3014 139.7 34.0784 139.688 33.8419Z" fill="#333333"/>
<path fill-rule="evenodd" clip-rule="evenodd" d="M143.364 19.3165H138.578L135.223 27.9655L131.886 19.3165H127.1L132.918 32.9835L129.299 42.0193H134.05L143.364 19.3165ZM114.256 26.9182C114.256 29.1017 116.165 30.5385 118.04 30.5385C119.882 30.5385 121.692 29.2015 121.692 26.9169C121.692 24.6323 119.882 23.2939 118.04 23.2939C116.165 23.2939 114.256 24.7321 114.256 26.9169V26.9182ZM121.692 34.5496V32.8204C120.722 34.2895 118.457 34.8448 117.296 34.8448C113.449 34.8448 109.601 31.8122 109.601 26.9169C109.601 22.0229 113.448 18.9903 117.296 18.9903C118.265 18.9903 120.529 19.3138 121.692 21.0121V19.3219H126.154V34.5523L121.692 34.551V34.5496ZM108.331 34.5496H103.87V32.6573C103.125 34.059 101.317 34.8758 99.441 34.8758C95.5606 34.8758 92.1331 31.7772 92.1331 26.9789C92.1331 22.0903 95.5606 18.9876 99.441 18.9876C101.314 18.9876 103.127 19.7694 103.87 21.1725V11.0193H108.331V34.5496ZM103.773 26.8832C103.773 24.6 102.124 23.2616 100.282 23.2616C98.3735 23.2616 96.7884 24.697 96.7884 26.8832C96.7884 29.1395 98.3735 30.5682 100.281 30.5682C102.158 30.5709 103.773 29.0694 103.773 26.8832ZM81.1024 26.4896C81.1024 24.1741 82.2993 23.391 83.883 23.391C85.402 23.391 86.5018 24.4019 86.5018 26.4236V34.5469H90.9955V25.4464C90.9955 21.1091 88.8605 18.9876 85.4654 18.9876C83.6876 18.9876 81.9098 19.9985 81.1011 21.5323V19.3165H76.6101V34.5469H81.1024V26.4896ZM67.4854 34.8084C63.2181 34.8084 59.6585 31.6774 59.6585 26.8819C59.6585 22.0836 63.2141 18.9836 67.4854 18.9836C71.7566 18.9836 75.3432 22.0836 75.3432 26.8819C75.3432 31.6801 71.7526 34.8098 67.4854 34.8098V34.8084ZM67.4854 30.3741C69.3588 30.3741 70.9129 29.002 70.9129 26.8832C70.9129 24.8278 69.3602 23.4247 67.4854 23.4247C67.0339 23.4176 66.5858 23.5025 66.1682 23.6742C65.7507 23.8459 65.3724 24.1008 65.0566 24.4234C64.7389 24.7477 64.4896 25.1326 64.3236 25.5552C64.1576 25.9777 64.0782 26.4294 64.0902 26.8832C64.0915 29.0047 65.6429 30.3741 67.4854 30.3741ZM51.6026 23.3923C52.9275 23.3923 54.092 24.4369 54.092 26.4249V34.5496H58.5533V25.8993C58.5533 21.3005 56.3173 18.9849 52.7334 18.9849C51.6686 18.9849 49.663 19.3084 48.2074 21.6914C47.3664 19.9298 45.7503 19.0159 43.362 19.0159C42.5327 19.0117 41.7199 19.2464 41.0205 19.6919C40.3211 20.1375 39.7649 20.775 39.4182 21.5283V19.3179H34.9219V34.5483H39.4142V26.4896C39.4142 24.1741 40.6757 23.391 42.033 23.391C43.3269 23.391 44.4887 24.4019 44.5224 26.3265V34.5483H49.0161V26.4896C49.0161 24.2752 50.1806 23.3937 51.6026 23.3937V23.3923Z" fill="#333333"/>
</svg>
