<svg width="143" height="49" viewBox="0 0 143 49" fill="none" xmlns="http://www.w3.org/2000/svg">
<path d="M53.2126 13.2909H45.3374C44.7985 13.2909 44.3402 13.6824 44.2561 14.2144L41.071 34.4085C41.0077 34.807 41.3163 35.1662 41.7205 35.1662H45.4802C46.0191 35.1662 46.4774 34.7747 46.5614 34.2416L47.4205 28.7949C47.5034 28.2617 47.9628 27.8702 48.5006 27.8702H50.9936C56.1812 27.8702 59.1751 25.3599 59.957 20.3854C60.3094 18.209 59.972 16.499 58.9529 15.3014C57.8336 13.9864 55.8484 13.2909 53.2126 13.2909ZM54.1211 20.6663C53.6905 23.4922 51.5314 23.4922 49.4437 23.4922H48.2553L49.089 18.2148C49.1385 17.8958 49.4149 17.6609 49.7373 17.6609H50.282C51.7041 17.6609 53.0456 17.6609 53.7388 18.4716C54.1522 18.9552 54.2789 19.6737 54.1211 20.6663Z" fill="#253B80"/>
<path d="M76.7532 20.5754H72.982C72.6607 20.5754 72.3832 20.8103 72.3337 21.1292L72.1667 22.184L71.903 21.8017C71.0866 20.6168 69.266 20.2207 67.449 20.2207C63.2816 20.2207 59.7223 23.377 59.0291 27.8046C58.6687 30.0132 59.1811 32.1251 60.4339 33.5979C61.5831 34.952 63.2275 35.5163 65.1839 35.5163C68.5417 35.5163 70.4037 33.3572 70.4037 33.3572L70.2356 34.4051C70.1723 34.8058 70.4809 35.1651 70.8828 35.1651H74.2797C74.8198 35.1651 75.2758 34.7736 75.361 34.2404L77.3992 21.3331C77.4637 20.9358 77.1562 20.5754 76.7532 20.5754ZM71.4965 27.9151C71.1326 30.0696 69.4226 31.5159 67.2417 31.5159C66.1466 31.5159 65.2714 31.1647 64.7095 30.4991C64.1522 29.8382 63.9403 28.8974 64.1176 27.8495C64.4573 25.7134 66.1961 24.2199 68.3437 24.2199C69.4146 24.2199 70.2851 24.5757 70.8586 25.2471C71.4332 25.9253 71.6612 26.8719 71.4965 27.9151Z" fill="#253B80"/>
<path d="M96.8379 20.5753H93.0482C92.6867 20.5753 92.347 20.755 92.142 21.0555L86.9153 28.7545L84.6997 21.356C84.5604 20.8931 84.1332 20.5753 83.6496 20.5753H79.9256C79.473 20.5753 79.1587 21.0175 79.3026 21.4436L83.4768 33.6934L79.5525 39.2333C79.2439 39.6697 79.5548 40.2697 80.0879 40.2697H83.873C84.2322 40.2697 84.5685 40.0947 84.7723 39.7999L97.3768 21.6059C97.6785 21.1707 97.3687 20.5753 96.8379 20.5753Z" fill="#253B80"/>
<path d="M109.385 13.2909H101.508C100.971 13.2909 100.512 13.6824 100.428 14.2144L97.2431 34.4085C97.1798 34.807 97.4884 35.1662 97.8903 35.1662H101.932C102.307 35.1662 102.629 34.8922 102.688 34.5191L103.591 28.7949C103.674 28.2617 104.134 27.8702 104.672 27.8702H107.163C112.352 27.8702 115.345 25.3599 116.128 20.3854C116.481 18.209 116.142 16.499 115.123 15.3014C114.005 13.9864 112.021 13.2909 109.385 13.2909ZM110.293 20.6663C109.864 23.4922 107.705 23.4922 105.616 23.4922H104.429L105.263 18.2148C105.313 17.8958 105.587 17.6609 105.911 17.6609H106.455C107.876 17.6609 109.219 17.6609 109.912 18.4716C110.325 18.9552 110.451 19.6737 110.293 20.6663Z" fill="#179BD7"/>
<path d="M132.924 20.5754H129.155C128.832 20.5754 128.556 20.8103 128.508 21.1292L128.341 22.184L128.076 21.8017C127.26 20.6168 125.44 20.2207 123.623 20.2207C119.456 20.2207 115.898 23.377 115.205 27.8046C114.845 30.0132 115.355 32.1251 116.608 33.5979C117.76 34.952 119.402 35.5163 121.358 35.5163C124.716 35.5163 126.578 33.3572 126.578 33.3572L126.41 34.4051C126.347 34.8058 126.655 35.1651 127.059 35.1651H130.455C130.993 35.1651 131.451 34.7736 131.535 34.2404L133.575 21.3331C133.637 20.9358 133.328 20.5754 132.924 20.5754ZM127.667 27.9151C127.306 30.0696 125.594 31.5159 123.413 31.5159C122.32 31.5159 121.442 31.1647 120.88 30.4991C120.323 29.8382 120.113 28.8974 120.288 27.8495C120.63 25.7134 122.367 24.2199 124.515 24.2199C125.585 24.2199 126.456 24.5757 127.029 25.2471C127.606 25.9253 127.834 26.8719 127.667 27.9151Z" fill="#179BD7"/>
<path d="M137.37 13.8447L134.138 34.4085C134.074 34.8069 134.383 35.1662 134.785 35.1662H138.034C138.574 35.1662 139.033 34.7746 139.116 34.2415L142.303 14.0485C142.366 13.6501 142.058 13.2897 141.656 13.2897H138.017C137.696 13.2908 137.419 13.5257 137.37 13.8447Z" fill="#179BD7"/>
<path d="M8.36683 39.0906L8.96907 35.2653L7.62756 35.2342H1.22168L5.67344 7.00709C5.68725 6.92188 5.73216 6.84243 5.7978 6.786C5.86344 6.72958 5.9475 6.69849 6.03501 6.69849H16.8362C20.422 6.69849 22.8966 7.44467 24.1886 8.91746C24.7943 9.60837 25.1801 10.3304 25.3666 11.1249C25.5624 11.9586 25.5659 12.9547 25.3747 14.1695L25.3609 14.2582V15.0366L25.9666 15.3798C26.4767 15.6504 26.882 15.9601 27.1929 16.3148C27.7111 16.9055 28.0462 17.6563 28.1879 18.5464C28.3341 19.4619 28.2857 20.5512 28.0462 21.7845C27.7699 23.2032 27.3231 24.4387 26.7197 25.4498C26.1646 26.3813 25.4576 27.154 24.6182 27.7528C23.8167 28.3216 22.8644 28.7535 21.7877 29.0298C20.7445 29.3016 19.555 29.4386 18.2503 29.4386H17.4097C16.8086 29.4386 16.2248 29.6551 15.7665 30.0432C15.307 30.4393 15.003 30.9805 14.9097 31.5724L14.8464 31.9167L13.7824 38.6588L13.734 38.9064C13.7214 38.9847 13.6995 39.0238 13.6673 39.0503C13.6385 39.0745 13.597 39.0906 13.5567 39.0906H8.36683Z" fill="#253B80"/>
<path d="M26.5401 14.3479C26.5079 14.554 26.471 14.7647 26.4296 14.9812C25.0052 22.2945 20.132 24.8209 13.908 24.8209H10.739C9.9779 24.8209 9.3365 25.3737 9.2179 26.1244L7.59541 36.4144L7.13596 39.3312C7.0588 39.824 7.4388 40.2685 7.93626 40.2685H13.5568C14.2224 40.2685 14.7878 39.7849 14.8926 39.1285L14.9478 38.8429L16.0061 32.1273L16.074 31.7588C16.1777 31.1001 16.7442 30.6165 17.4098 30.6165H18.2504C23.6959 30.6165 27.9588 28.4056 29.2047 22.0078C29.7252 19.3351 29.4558 17.1035 28.0786 15.534C27.6617 15.0607 27.1447 14.668 26.5401 14.3479Z" fill="#179BD7"/>
<path d="M25.05 13.7538C24.8323 13.6905 24.6078 13.6329 24.3775 13.5811C24.146 13.5304 23.9088 13.4855 23.6647 13.4464C22.8103 13.3082 21.8741 13.2426 20.8711 13.2426H12.4052C12.1967 13.2426 11.9987 13.2898 11.8213 13.375C11.431 13.5627 11.1408 13.9323 11.0706 14.3849L9.26959 25.7918L9.21777 26.1246C9.33638 25.3738 9.97777 24.821 10.7389 24.821H13.9079C20.1318 24.821 25.005 22.2935 26.4295 14.9813C26.4721 14.7649 26.5078 14.5541 26.54 14.348C26.1796 14.1569 25.7892 13.9933 25.3689 13.854C25.2653 13.8195 25.1582 13.7861 25.05 13.7538Z" fill="#222D65"/>
<path d="M11.0707 14.3848C11.1409 13.9323 11.4311 13.5626 11.8214 13.3761C11.9999 13.2909 12.1968 13.2437 12.4053 13.2437H20.8712C21.8742 13.2437 22.8103 13.3093 23.6648 13.4475C23.9089 13.4866 24.1461 13.5315 24.3776 13.5822C24.6079 13.634 24.8324 13.6916 25.05 13.7549C25.1583 13.7872 25.2654 13.8206 25.3702 13.854C25.7905 13.9933 26.1808 14.158 26.5413 14.348C26.965 11.6453 26.5378 9.80523 25.0765 8.13898C23.4656 6.30462 20.558 5.51929 16.8374 5.51929H6.03623C5.27623 5.51929 4.62793 6.07201 4.51047 6.82395L0.0115023 35.3412C-0.0771644 35.9055 0.358108 36.4144 0.926957 36.4144H7.59538L9.26968 25.7917L11.0707 14.3848Z" fill="#253B80"/>
</svg>
