<svg width="21" height="21" viewBox="0 0 21 21" fill="none" xmlns="http://www.w3.org/2000/svg">
<path d="M17.4891 14.8306L14.1016 11.7506C13.9415 11.605 13.7311 11.5274 13.5148 11.5341C13.2985 11.5408 13.0933 11.6313 12.9424 11.7864L10.9483 13.8372C10.4683 13.7456 9.50328 13.4447 8.50995 12.4539C7.51662 11.4597 7.21578 10.4922 7.12662 10.0156L9.17578 8.02057C9.33113 7.86984 9.42173 7.66459 9.42842 7.44824C9.4351 7.2319 9.35735 7.02144 9.21162 6.8614L6.13245 3.47474C5.98665 3.3142 5.78402 3.21682 5.56758 3.20329C5.35114 3.18975 5.13795 3.26112 4.97328 3.40224L3.16495 4.95307C3.02088 5.09767 2.93488 5.29011 2.92328 5.4939C2.91078 5.70224 2.67245 10.6372 6.49912 14.4656C9.83745 17.8031 14.0191 18.0472 15.1708 18.0472C15.3391 18.0472 15.4424 18.0422 15.4699 18.0406C15.6737 18.0292 15.8661 17.9428 16.0099 17.7981L17.5599 15.9889C17.7016 15.8248 17.7735 15.6117 17.7603 15.3953C17.7471 15.1789 17.6497 14.9762 17.4891 14.8306Z" fill="#E2D784"/>
</svg>
