<svg width="127" height="49" viewBox="0 0 127 49" fill="none" xmlns="http://www.w3.org/2000/svg">
<path d="M27.1506 12.403C27.1253 12.2261 26.9736 12.125 26.8472 12.125C26.7208 12.125 24.2181 12.0744 24.2181 12.0744C24.2181 12.0744 22.1199 10.052 21.9177 9.8245C21.7154 9.62226 21.3109 9.67282 21.1593 9.72338C21.1593 9.72338 20.7548 9.84977 20.0975 10.052C19.9964 9.6981 19.8194 9.26834 19.5919 8.8133C18.8588 7.39763 17.7465 6.63923 16.4319 6.63923C16.3308 6.63923 16.255 6.63923 16.1538 6.66451C16.1033 6.61395 16.078 6.56339 16.0274 6.53811C15.446 5.93139 14.7129 5.62804 13.8281 5.65332C12.1343 5.70388 10.4406 6.94259 9.05019 9.11666C8.08956 10.6587 7.35644 12.58 7.12892 14.0715C5.18237 14.6782 3.81726 15.108 3.7667 15.108C2.78079 15.4113 2.75551 15.4366 2.62911 16.372C2.57855 17.0798 0 37.0256 0 37.0256L21.6396 40.7671L31.0184 38.4413C30.9931 38.4413 27.1759 12.58 27.1506 12.403ZM19.0105 10.4059C18.5049 10.5576 17.9487 10.7346 17.342 10.9368C17.342 10.0773 17.2156 8.86386 16.8364 7.85266C18.1257 8.0549 18.7577 9.52114 19.0105 10.4059ZM16.2044 11.2654C15.0668 11.6194 13.8281 11.9986 12.5894 12.3778C12.9433 11.0379 13.6006 9.72338 14.4095 8.83858C14.7129 8.50994 15.1426 8.15602 15.623 7.95378C16.1286 8.9397 16.2297 10.3301 16.2044 11.2654ZM13.8787 6.79091C14.2831 6.79091 14.6118 6.86675 14.8898 7.06899C14.4348 7.29651 13.9798 7.65043 13.5753 8.10546C12.4883 9.26834 11.654 11.0632 11.3254 12.8075C10.2889 13.1362 9.27771 13.4395 8.36764 13.7176C8.97435 10.9621 11.2748 6.86675 13.8787 6.79091Z" fill="#95BF47"/>
<path d="M26.8473 12.1251C26.7209 12.1251 24.2182 12.0746 24.2182 12.0746C24.2182 12.0746 22.12 10.0522 21.9177 9.82464C21.8419 9.7488 21.7408 9.69824 21.6396 9.69824V40.7672L31.0185 38.4415C31.0185 38.4415 27.2012 12.5801 27.1759 12.4032C27.1254 12.2262 26.9737 12.1251 26.8473 12.1251Z" fill="#5E8E3E"/>
<path d="M16.4323 16.9532L15.3452 21.0233C15.3452 21.0233 14.1318 20.4671 12.6908 20.5683C10.5673 20.6947 10.5673 22.0345 10.5673 22.3631C10.6937 24.1833 15.4716 24.5878 15.7497 28.8601C15.9519 32.2223 13.9801 34.5227 11.0982 34.6997C7.66015 34.8767 5.76416 32.8543 5.76416 32.8543L6.49728 29.7448C6.49728 29.7448 8.41855 31.1858 9.93534 31.0847C10.9213 31.0341 11.3005 30.1999 11.2499 29.6437C11.0982 27.2674 7.20511 27.4191 6.95231 23.5007C6.75008 20.2143 8.89886 16.9027 13.6515 16.5993C15.4969 16.4729 16.4323 16.9532 16.4323 16.9532Z" fill="white"/>
<path d="M43.7092 25.6246C42.6221 25.0432 42.066 24.5376 42.066 23.855C42.066 22.9955 42.8496 22.4394 44.0631 22.4394C45.4788 22.4394 46.7427 23.0208 46.7427 23.0208L47.7287 19.9872C47.7287 19.9872 46.8186 19.2794 44.1389 19.2794C40.3975 19.2794 37.7937 21.4282 37.7937 24.4365C37.7937 26.1555 39.0071 27.4448 40.625 28.3801C41.9396 29.1132 42.3946 29.6441 42.3946 30.4278C42.3946 31.2368 41.7373 31.894 40.5239 31.894C38.729 31.894 37.01 30.9587 37.01 30.9587L35.9482 33.9923C35.9482 33.9923 37.5156 35.054 40.17 35.054C44.0125 35.054 46.7933 33.158 46.7933 29.7452C46.768 27.8998 45.3776 26.5853 43.7092 25.6246Z" fill="black"/>
<path d="M59.0288 19.229C57.1329 19.229 55.6413 20.1391 54.5038 21.5042L54.4532 21.4789L56.0964 12.8838H51.8241L47.6529 34.7762H51.9252L53.3409 27.2933C53.897 24.462 55.3633 22.7177 56.7284 22.7177C57.689 22.7177 58.0682 23.3749 58.0682 24.3103C58.0682 24.8917 58.0177 25.6248 57.8913 26.2063L56.2733 34.7762H60.5456L62.2141 25.9282C62.3911 24.9928 62.5175 23.8805 62.5175 23.1221C62.5428 20.6953 61.2788 19.229 59.0288 19.229Z" fill="black"/>
<path d="M72.2246 19.2287C67.0675 19.2287 63.6547 23.8802 63.6547 29.0625C63.6547 32.3742 65.7024 35.0539 69.5449 35.0539C74.6009 35.0539 78.0137 30.5288 78.0137 25.22C78.039 22.1611 76.2441 19.2287 72.2246 19.2287ZM70.1263 31.7928C68.6601 31.7928 68.0534 30.554 68.0534 28.9867C68.0534 26.5345 69.3174 22.5403 71.6431 22.5403C73.1599 22.5403 73.6655 23.8549 73.6655 25.1189C73.6655 27.748 72.3763 31.7928 70.1263 31.7928Z" fill="black"/>
<path d="M88.9857 19.2287C86.1038 19.2287 84.4606 21.7819 84.4606 21.7819H84.4101L84.6629 19.4815H80.8709C80.6939 21.0235 80.34 23.3998 80.0114 25.1694L77.0283 40.843H81.3006L82.4888 34.4977H82.5899C82.5899 34.4977 83.4747 35.0539 85.0926 35.0539C90.1233 35.0539 93.4097 29.8968 93.4097 24.6891C93.4097 21.8072 92.1204 19.2287 88.9857 19.2287ZM84.8904 31.8433C83.7781 31.8433 83.1208 31.2113 83.1208 31.2113L83.8286 27.2171C84.3342 24.5374 85.7246 22.7678 87.2161 22.7678C88.5307 22.7678 88.9352 23.9813 88.9352 25.1189C88.9352 27.8997 87.292 31.8433 84.8904 31.8433Z" fill="black"/>
<path d="M99.5267 13.0859C98.1616 13.0859 97.0745 14.173 97.0745 15.5634C97.0745 16.8274 97.8835 17.7122 99.0969 17.7122H99.1475C100.487 17.7122 101.625 16.8021 101.65 15.2347C101.65 13.996 100.816 13.0859 99.5267 13.0859Z" fill="black"/>
<path d="M93.5356 34.7506H97.8079L100.715 19.5827H96.4175L93.5356 34.7506Z" fill="black"/>
<path d="M111.61 19.5577H108.627L108.779 18.8499C109.032 17.3836 109.891 16.0943 111.332 16.0943C112.091 16.0943 112.698 16.3219 112.698 16.3219L113.532 12.9596C113.532 12.9596 112.799 12.5804 111.206 12.5804C109.689 12.5804 108.172 13.0102 107.01 13.9961C105.543 15.2348 104.861 17.0297 104.532 18.8499L104.406 19.5577H102.409L101.777 22.7935H103.774L101.499 34.7762H105.771L108.046 22.7935H111.004L111.61 19.5577Z" fill="black"/>
<path d="M121.924 19.5827C121.924 19.5827 119.245 26.3324 118.057 30.0233H118.006C117.93 28.8352 116.944 19.5827 116.944 19.5827H112.444L115.023 33.5119C115.074 33.8153 115.048 34.0175 114.922 34.2198C114.416 35.1804 113.582 36.1158 112.596 36.7983C111.787 37.3797 110.877 37.7589 110.169 38.0117L111.357 41.6521C112.217 41.4751 114.037 40.742 115.554 39.3263C117.5 37.5062 119.321 34.6748 121.166 30.8323L126.399 19.5827H121.924Z" fill="black"/>
</svg>
