<svg width="121" height="49" viewBox="0 0 121 49" fill="none" xmlns="http://www.w3.org/2000/svg">
<path d="M37.9251 32.9456L39.3932 29.5142C41.0006 30.7046 43.0973 31.3346 45.1945 31.3346C46.7323 31.3346 47.7107 30.7397 47.7107 29.8294C47.6756 27.3082 38.4494 29.2691 38.3792 22.9304C38.3441 19.709 41.2102 17.2229 45.2646 17.2229C47.6756 17.2229 50.0875 17.8183 51.7997 19.1842L50.4279 22.6888C48.8525 21.6758 46.9067 20.9696 45.0546 20.9696C43.7965 20.9696 42.9575 21.5646 42.9575 22.3355C42.9925 24.8216 52.2895 23.4557 52.3942 29.5142C52.3942 32.8058 49.5978 35.117 45.6135 35.117C42.6783 35.117 39.9871 34.4167 37.9246 32.9456H37.9251ZM96.3831 28.2716C96.0125 28.93 95.4735 29.4781 94.8212 29.8595C94.169 30.2409 93.427 30.4419 92.6715 30.4419C90.3167 30.4419 88.4079 28.5292 88.4079 26.1699C88.4079 23.8106 90.3167 21.8979 92.6715 21.8979C93.427 21.898 94.169 22.099 94.8212 22.4804C95.4735 22.8618 96.0125 23.4098 96.3831 24.0682L100.465 21.8027C98.9359 19.0704 96.0197 17.2229 92.6715 17.2229C87.7398 17.2229 83.742 21.2282 83.742 26.1699C83.742 31.1111 87.7398 35.117 92.6715 35.117C96.0197 35.117 98.9359 33.2694 100.465 30.5372L96.3831 28.2716ZM55.0427 34.7666H60.1453V9.77502H55.0432L55.0427 34.7666ZM103.042 9.77502V34.7666H108.144V27.2792L114.19 34.7666H120.713L113.024 25.8717L120.153 17.5717H113.911L108.144 24.4722V9.77502H103.042ZM75.8655 17.5727V19.6042C75.027 18.2033 72.9649 17.2229 70.7981 17.2229C66.3245 17.2229 62.7948 21.1801 62.7948 26.1524C62.7948 31.1246 66.3245 35.117 70.7981 35.117C72.9649 35.117 75.027 34.1365 75.8655 32.7356V34.7666H80.9681V17.5727H75.8655ZM75.8655 28.3062C75.1317 29.5317 73.5939 30.4414 71.8817 30.4414C69.5264 30.4414 67.6177 28.5292 67.6177 26.1699C67.6177 23.8106 69.5264 21.8979 71.8817 21.8979C73.5939 21.8979 75.1317 22.8432 75.8655 24.1033V28.3062Z" fill="black"/>
<path d="M10.9783 9.2229C9.32472 9.2229 7.98442 10.5662 7.98442 12.2228C7.98402 12.6163 8.06115 13.0061 8.21139 13.3699C8.36163 13.7336 8.58205 14.0642 8.86006 14.3428C9.13806 14.6214 9.46822 14.8424 9.83166 14.9934C10.1951 15.1444 10.5847 15.2223 10.9783 15.2227H13.9727V12.2228C13.9733 11.4279 13.6582 10.6653 13.0967 10.1028C12.5352 9.54019 11.7732 9.2237 10.9783 9.2229ZM10.9783 17.2226H2.99412C1.34055 17.2226 0.000244141 18.5659 0.000244141 20.223C0.000244141 21.8796 1.34055 23.2229 2.99412 23.2229H10.9788C12.6319 23.2229 13.9727 21.8796 13.9727 20.223C13.9727 18.5659 12.6319 17.2226 10.9783 17.2226Z" fill="#36C5F0"/>
<path d="M29.9412 20.223C29.9412 18.5659 28.6004 17.2226 26.9468 17.2226C25.2932 17.2226 23.9529 18.5659 23.9529 20.223V23.2229H26.9468C27.7417 23.2221 28.5037 22.9056 29.0652 22.343C29.6268 21.7805 29.9418 21.0179 29.9412 20.223ZM21.957 20.223V12.2228C21.9577 11.4279 21.6426 10.6653 21.081 10.1028C20.5195 9.54019 19.7575 9.2237 18.9626 9.2229C17.3091 9.2229 15.9688 10.5662 15.9688 12.2228V20.2225C15.9688 21.8801 17.3091 23.2234 18.9626 23.2234C19.7575 23.2226 20.5195 22.9061 21.081 22.3435C21.6426 21.781 21.9577 21.0184 21.957 20.2235" fill="#2EB67D"/>
<path d="M18.9626 39.2229C19.7575 39.2221 20.5195 38.9056 21.081 38.343C21.6426 37.7805 21.9577 37.0179 21.957 36.223C21.9577 35.4281 21.6426 34.6655 21.081 34.103C20.5195 33.5404 19.7575 33.2239 18.9626 33.2231H15.9688V36.223C15.9688 37.8796 17.3091 39.2229 18.9626 39.2229ZM18.9626 31.2232H26.9473C28.6004 31.2232 29.9412 29.8799 29.9412 28.2228C29.9418 27.4279 29.6268 26.6653 29.0652 26.1028C28.5037 25.5402 27.7417 25.2237 26.9468 25.2229H18.9626C17.3091 25.2229 15.9688 26.5662 15.9688 28.2228C15.9684 28.6163 16.0455 29.0061 16.1957 29.3699C16.346 29.7336 16.5664 30.0642 16.8444 30.3428C17.1224 30.6214 17.4526 30.8424 17.816 30.9934C18.1794 31.1444 18.5691 31.2223 18.9626 31.2227" fill="#ECB22E"/>
<path d="M1.51064e-06 28.2228C-0.000393626 28.6163 0.0767319 29.0061 0.226974 29.3699C0.377217 29.7336 0.597634 30.0642 0.875642 30.3428C1.15365 30.6214 1.4838 30.8424 1.84725 30.9934C2.2107 31.1444 2.60032 31.2223 2.99388 31.2227C3.78875 31.2219 4.55075 30.9054 5.11229 30.3428C5.67383 29.7802 5.98892 29.0177 5.98826 28.2228V25.2229H2.99388C1.3403 25.2229 1.51064e-06 26.5662 1.51064e-06 28.2228ZM7.98417 28.2228V36.2225C7.98417 37.8796 9.32448 39.2229 10.9781 39.2229C11.7729 39.2221 12.5349 38.9056 13.0965 38.343C13.658 37.7805 13.9731 37.0179 13.9724 36.223V28.2228C13.9728 27.8292 13.8957 27.4394 13.7454 27.0756C13.5951 26.7118 13.3747 26.3812 13.0966 26.1026C12.8186 25.824 12.4883 25.603 12.1248 25.452C11.7613 25.3011 11.3716 25.2232 10.9781 25.2229C9.32448 25.2229 7.98417 26.5662 7.98417 28.2228Z" fill="#E01E5A"/>
</svg>
