<svg width="113" height="49" viewBox="0 0 113 49" fill="none" xmlns="http://www.w3.org/2000/svg">
<path fill-rule="evenodd" clip-rule="evenodd" d="M19.9454 12.5193H2.69002C1.97719 12.5193 1.29351 12.8022 0.789136 13.3059C0.284766 13.8097 0.000951367 14.493 3.15904e-05 15.2058V32.4338C-0.00168142 32.7873 0.0662881 33.1377 0.200054 33.4649C0.333821 33.792 0.530761 34.0897 0.779617 34.3407C1.02847 34.5917 1.32436 34.7913 1.65038 34.9279C1.97639 35.0645 2.32613 35.1355 2.6796 35.1369H19.9476C20.3009 35.1365 20.6507 35.0664 20.977 34.9308C21.3032 34.7952 21.5996 34.5967 21.8491 34.3465C22.0986 34.0964 22.2964 33.7995 22.4312 33.4729C22.5659 33.1463 22.635 32.7963 22.6345 32.443V15.2058C22.6336 14.4931 22.3499 13.8099 21.8457 13.3062C21.3415 12.8025 20.6581 12.5195 19.9454 12.5193V12.5193ZM9.76207 28.8102C9.76104 29.0486 9.66535 29.2769 9.49604 29.4449C9.32673 29.6128 9.09766 29.7066 8.85919 29.7057H5.08454C4.84775 29.7045 4.62104 29.6097 4.45397 29.4419C4.2869 29.2741 4.19305 29.047 4.19294 28.8102V17.5882C4.19282 17.3513 4.28659 17.1241 4.45371 16.9562C4.62084 16.7884 4.84768 16.6936 5.08454 16.6927H8.85572C9.09294 16.6936 9.32019 16.7882 9.48793 16.956C9.65567 17.1237 9.75031 17.351 9.75123 17.5882L9.76207 28.8102ZM18.4624 23.6576C18.4624 23.8951 18.3681 24.1229 18.2002 24.2909C18.0322 24.4589 17.8045 24.5534 17.5669 24.5535H13.7853C13.548 24.5526 13.3207 24.4579 13.153 24.29C12.9852 24.1222 12.8906 23.8949 12.8898 23.6576V17.5882C12.8907 17.351 12.9854 17.1237 13.1531 16.956C13.3209 16.7882 13.5481 16.6936 13.7853 16.6927H17.5561C17.793 16.6935 18.02 16.7882 18.1872 16.9561C18.3544 17.1239 18.4482 17.3512 18.4481 17.5882L18.4624 23.6576Z" fill="url(#paint0_linear_1_3680)"/>
<path d="M46.897 14.1765V18.5503H41.7158V35.1371H36.7193V18.5503H31.5381V14.1765H46.897Z" fill="#293856"/>
<path d="M53.2552 35.1371H48.6362V18.821H53.2552V21.9449C54.1329 19.7439 55.536 18.4349 58.0343 18.5945V23.4278C54.7707 23.174 53.2552 23.9715 53.2552 26.586V35.1371Z" fill="#293856"/>
<path d="M83.2692 35.264C80.2417 35.264 78.3379 33.8136 78.3379 30.3834V12.5193H82.9898V29.7439C82.9898 30.7335 83.6406 31.0854 84.4403 31.0854C84.6704 31.0898 84.9006 31.0788 85.1292 31.0524V35.0735C84.521 35.2224 83.8951 35.2865 83.2692 35.264Z" fill="#293856"/>
<path d="M92.9734 35.264C89.9459 35.264 88.0386 33.8135 88.0386 30.3834V12.5193H92.6905V29.7439C92.6905 30.7335 93.3465 31.0854 94.1587 31.0854C94.3877 31.0903 94.6168 31.0792 94.8442 31.0524V35.0735C94.2325 35.2237 93.6028 35.2878 92.9734 35.264Z" fill="#293856"/>
<path d="M97.0728 26.9721C97.0728 21.9323 99.9736 18.4839 104.969 18.4839C109.965 18.4839 112.805 21.921 112.805 26.9721C112.805 32.0232 109.933 35.5193 104.97 35.5193C100.007 35.5193 97.0728 31.9789 97.0728 26.9721ZM101.601 26.9721C101.601 29.4265 102.631 31.3737 104.97 31.3737C107.309 31.3737 108.28 29.4265 108.28 26.9721C108.28 24.5177 107.283 22.6208 104.97 22.6208C102.658 22.6208 101.601 24.5138 101.601 26.9721Z" fill="#293856"/>
<path d="M64.2698 28.4472C65.5632 28.5892 66.863 28.6654 68.1642 28.6755C71.7028 28.6755 74.6904 27.7257 74.6904 24.2995C74.6904 20.9743 71.6195 18.4761 67.9247 18.4761C62.9504 18.4761 59.7632 22.0841 59.7632 27.1239C59.7632 32.356 62.5113 35.4629 68.7226 35.4629C70.5651 35.478 72.3944 35.1511 74.1177 34.4988V30.5901C72.5224 31.1012 70.7275 31.6088 68.8857 31.6088C66.4126 31.6093 64.6889 30.7966 64.2698 28.4472ZM67.8305 22.0368C69.1395 22.0368 70.1908 22.925 70.1908 24.1398C70.1908 25.7017 68.5421 26.192 66.6413 26.192C65.8327 26.1881 65.0255 26.1239 64.2264 25.9998C64.2867 25.2379 64.5053 24.497 64.8681 23.8244C65.1594 23.2915 65.5874 22.8458 66.1081 22.5332C66.6287 22.2205 67.2233 22.0522 67.8305 22.0455V22.0368Z" fill="#293856"/>
<defs>
<linearGradient id="paint0_linear_1_3680" x1="11.3162" y1="35.1369" x2="11.3162" y2="12.5193" gradientUnits="userSpaceOnUse">
<stop stop-color="#0052CC"/>
<stop offset="1" stop-color="#2684FF"/>
</linearGradient>
</defs>
</svg>
