<svg width="21" height="21" viewBox="0 0 21 21" fill="none" xmlns="http://www.w3.org/2000/svg">
<path d="M10.4166 2.21387C5.82159 2.21387 2.08325 5.9522 2.08325 10.5472C2.08325 15.1422 5.82159 18.8805 10.4166 18.8805C15.0116 18.8805 18.7499 15.1422 18.7499 10.5472C18.7499 5.9522 15.0116 2.21387 10.4166 2.21387ZM3.74992 10.5472C3.74992 9.79803 3.87992 9.07887 4.10909 8.40637L5.41659 9.71387L7.08325 11.3805V13.0472L8.74992 14.7139L9.58325 15.5472V17.1564C6.30075 16.7439 3.74992 13.9405 3.74992 10.5472ZM15.6916 14.608C15.1474 14.1697 14.3224 13.8805 13.7499 13.8805V13.0472C13.7499 12.6052 13.5743 12.1813 13.2618 11.8687C12.9492 11.5561 12.5253 11.3805 12.0833 11.3805H8.74992V8.88053C9.19195 8.88053 9.61587 8.70494 9.92843 8.39238C10.241 8.07982 10.4166 7.65589 10.4166 7.21387V6.38053H11.2499C11.6919 6.38053 12.1159 6.20494 12.4284 5.89238C12.741 5.57982 12.9166 5.15589 12.9166 4.71387V4.37137C15.3566 5.3622 17.0833 7.75553 17.0833 10.5472C17.0831 12.0178 16.5935 13.4465 15.6916 14.608Z" fill="#E2D784"/>
</svg>
